<?xml version="1.0" standalone="no"?>
<!DOCTYPE svg PUBLIC "-//W3C//DTD SVG 20010904//EN"
 "http://www.w3.org/TR/2001/REC-SVG-20010904/DTD/svg10.dtd">
<svg version="1.0" xmlns="http://www.w3.org/2000/svg"
 width="360.000000pt" height="360.000000pt" viewBox="0 0 360.000000 360.000000"
 preserveAspectRatio="xMidYMid meet">
<metadata>
Created by potrace 1.11, written by Peter Selinger 2001-2013
</metadata>
<g transform="translate(0.000000,360.000000) scale(0.100000,-0.100000)"
fill="#000000" stroke="none">
<path d="M1155 3020 c-27 -21 -51 -43 -53 -48 -9 -28 200 -255 334 -362 137
-109 346 -240 382 -240 40 0 96 -24 131 -55 20 -19 62 -43 92 -55 l54 -20
-120 117 c-66 65 -165 156 -220 202 -107 89 -435 338 -485 368 -16 9 -30 21
-30 26 0 11 41 -13 230 -139 200 -132 382 -279 564 -454 80 -77 148 -140 152
-140 3 0 -19 29 -48 64 -29 35 -88 109 -132 165 -141 181 -311 342 -487 460
-84 56 -273 151 -298 150 -9 0 -38 -18 -66 -39z"/>
<path d="M1904 2961 l-22 -40 147 -143 c171 -168 260 -247 394 -351 118 -92
187 -140 193 -135 5 6 -126 199 -194 283 -117 146 -302 312 -454 408 -37 23
-40 22 -64 -22z"/>
<path d="M1856 2874 c-9 -19 -16 -40 -16 -45 0 -17 91 -127 162 -195 129 -125
279 -231 478 -339 69 -37 131 -72 138 -77 7 -6 15 -9 17 -6 3 3 -32 31 -77 64
-200 143 -467 386 -635 576 l-50 56 -17 -34z"/>
<path d="M865 2470 c-8 -16 -15 -33 -15 -38 0 -5 60 -12 133 -16 176 -8 355
-31 528 -66 191 -39 207 -26 44 34 -216 80 -393 115 -572 116 l-102 0 -16 -30z"/>
<path d="M822 2368 l-18 -43 25 -11 c118 -50 343 -84 557 -84 l160 0 28 29
c15 16 24 31 19 34 -30 18 -333 70 -528 92 -77 8 -159 18 -182 21 -41 5 -42 5
-61 -38z"/>
<path d="M1707 2326 c-225 -95 -356 -412 -239 -581 125 -182 429 -48 522 230
29 86 26 209 -6 270 -49 94 -165 129 -277 81z m254 -187 c15 -28 5 -95 -17
-120 -56 -62 -97 40 -48 119 18 28 50 28 65 1z"/>
<path d="M2995 2320 c-57 -38 -236 -100 -330 -114 -163 -25 -206 -28 -412 -22
l-223 7 0 -29 0 -29 144 -7 c80 -4 170 -4 201 -1 l57 8 -5 -54 -6 -54 16 52
c14 47 19 53 50 59 18 3 39 2 46 -4 6 -5 48 -38 92 -73 107 -86 145 -112 145
-101 0 5 -42 41 -93 80 -51 39 -100 79 -110 90 -17 19 -17 20 25 26 116 18
347 110 418 166 32 25 23 25 -15 0z"/>
<path d="M486 2190 c-60 -10 -76 -20 -76 -52 0 -21 4 -21 90 -7 36 6 169 13
295 17 l230 7 -110 19 c-126 21 -342 29 -429 16z"/>
<path d="M1345 2124 c-257 -56 -497 -141 -747 -266 -133 -67 -185 -98 -207
-125 -17 -20 -29 -38 -27 -40 2 -2 95 39 208 91 229 105 379 169 512 215 97
34 313 91 345 91 13 0 26 12 36 30 19 36 25 36 -120 4z"/>
<path d="M630 2120 c-186 -13 -230 -20 -230 -38 0 -10 -3 -28 -7 -41 l-6 -24
149 6 c151 6 287 31 414 75 l54 19 -84 6 c-95 8 -138 7 -290 -3z"/>
<path d="M2179 2003 c-152 -222 -308 -409 -498 -598 -67 -66 -121 -122 -121
-125 0 -4 16 -14 36 -23 l36 -17 46 39 c134 112 278 287 376 456 52 88 186
345 181 345 -1 0 -26 -35 -56 -77z"/>
<path d="M1375 2051 c-3 -5 -40 -34 -83 -64 -155 -109 -300 -265 -373 -401
l-32 -59 18 -34 c32 -59 38 -59 102 -10 118 91 241 241 328 402 72 134 68 140
-30 45 -88 -86 -252 -275 -314 -362 -19 -27 -37 -46 -39 -43 -15 15 197 284
337 428 57 59 101 107 98 107 -3 0 -8 -4 -12 -9z"/>
<path d="M2575 2035 c11 -16 54 -97 98 -180 43 -82 76 -141 72 -130 -4 11 -10
43 -14 72 -6 44 -19 68 -81 150 -81 107 -104 134 -75 88z"/>
<path d="M2075 1991 c-55 -37 -77 -61 -103 -107 -18 -32 -58 -85 -89 -116 -55
-56 -154 -118 -187 -118 -29 0 -149 -149 -220 -272 l-27 -47 43 -22 43 -22
113 119 c146 153 306 346 405 487 75 106 101 147 95 147 -2 0 -34 -22 -73 -49z"/>
<path d="M2334 2009 c-45 -13 -125 -88 -157 -146 -88 -163 -69 -392 42 -503
86 -86 187 -88 281 -3 188 169 167 550 -35 644 -43 20 -82 22 -131 8z m205
-141 c39 -41 40 -138 2 -138 -43 0 -85 96 -62 139 15 27 35 27 60 -1z"/>
<path d="M2855 2001 c-179 -83 -141 -330 73 -475 93 -63 178 -89 267 -84 115
8 185 59 206 153 34 151 -108 337 -308 406 -74 25 -184 25 -238 0z m190 -2
c44 -11 74 -33 61 -46 -3 -3 -59 -7 -123 -7 -103 -1 -118 1 -121 16 -2 13 9
21 45 32 60 18 82 19 138 5z"/>
<path d="M2560 1971 c0 -7 17 -47 37 -88 34 -69 37 -84 43 -186 5 -95 11 -124
38 -192 34 -82 111 -225 121 -225 3 1 20 13 38 28 l32 28 -59 149 c-88 218
-249 532 -250 486z"/>
<path d="M2760 1677 c0 -1 15 -38 33 -82 19 -44 46 -117 61 -162 24 -72 30
-82 45 -73 41 21 44 36 22 101 -15 45 -33 74 -71 111 -27 27 -57 62 -65 79
-13 24 -25 37 -25 26z"/>
<path d="M2168 1252 c-77 -15 -104 -37 -55 -44 l22 -3 3 -233 2 -232 -25 -12
c-46 -21 -26 -28 80 -28 98 0 132 10 85 25 -27 9 -31 32 -28 155 l3 105 36 3
c30 3 41 -2 58 -24 18 -23 21 -40 21 -125 0 -88 -2 -99 -20 -109 -41 -22 -19
-30 80 -30 101 0 121 7 75 28 -24 11 -25 15 -25 109 0 117 -12 165 -47 193
-34 26 -97 26 -141 0 -18 -11 -35 -20 -38 -20 -3 0 -4 59 -3 130 2 72 2 129
-1 128 -3 0 -40 -8 -82 -16z"/>
<path d="M350 1213 c-64 -23 -143 -105 -159 -166 -18 -63 -10 -171 17 -222 26
-50 77 -100 122 -118 137 -57 303 -10 374 106 24 39 30 62 34 128 7 124 -37
212 -132 261 -55 29 -192 35 -256 11z m161 -36 c49 -32 86 -111 94 -200 19
-196 -80 -312 -197 -232 -113 76 -129 372 -24 436 41 25 86 24 127 -4z"/>
<path d="M1782 1209 c-89 -45 -109 -162 -39 -238 12 -13 47 -39 77 -58 87 -56
110 -81 110 -123 0 -47 -28 -74 -75 -73 -53 2 -97 33 -129 92 -20 37 -31 50
-39 42 -14 -14 7 -131 25 -142 27 -17 121 -30 167 -24 99 13 164 77 164 159 0
67 -24 99 -123 162 -117 74 -141 114 -99 168 16 21 29 26 64 26 36 0 48 -5 69
-31 14 -17 26 -41 26 -55 0 -40 28 -29 35 14 3 20 8 49 10 63 4 24 0 27 -33
33 -79 13 -166 7 -210 -15z"/>
<path d="M940 1050 c-8 -5 -39 -14 -67 -20 -58 -12 -63 -20 -33 -50 17 -17 20
-33 20 -112 0 -111 -6 -135 -31 -141 -10 -3 -19 -10 -19 -16 0 -7 34 -11 100
-11 94 0 126 10 80 25 -16 5 -20 15 -20 53 0 26 -3 76 -6 113 -5 53 -4 68 10
82 23 23 62 21 86 -3 18 -18 20 -33 20 -129 0 -101 -2 -110 -20 -116 -46 -15
-14 -25 80 -25 100 0 126 10 75 30 -25 9 -25 11 -25 128 0 121 -7 145 -50 179
-27 21 -94 15 -134 -12 -20 -14 -39 -25 -41 -25 -2 0 -5 13 -7 30 -2 23 -6 28
-18 20z"/>
<path d="M3075 1035 c-38 -12 -71 -27 -72 -32 -2 -5 7 -14 20 -20 30 -14 37
-62 37 -243 0 -171 -6 -200 -42 -214 -40 -15 -38 -40 3 -32 17 3 74 6 125 6
70 0 94 3 94 13 0 7 -15 17 -32 22 -33 10 -33 10 -36 83 l-3 72 39 0 c51 0
136 44 169 87 21 28 28 49 31 99 5 75 -8 114 -50 149 -37 31 -99 33 -146 5
-41 -25 -42 -25 -42 5 0 30 -4 30 -95 0z m169 -55 c36 -13 58 -63 58 -130 0
-81 -18 -114 -63 -118 -58 -5 -72 21 -77 135 -4 85 -2 98 14 110 21 16 34 16
68 3z"/>
<path d="M1380 1027 c-64 -34 -93 -92 -87 -174 6 -74 33 -124 81 -147 67 -32
161 -14 219 41 34 34 38 60 5 39 -62 -38 -146 -25 -178 27 -36 59 -31 63 82
71 56 3 106 10 111 15 4 4 0 30 -10 57 -34 91 -129 121 -223 71z m105 -31 c9
-14 15 -37 13 -53 -3 -26 -7 -28 -50 -31 l-48 -3 0 33 c0 68 54 102 85 54z"/>
<path d="M2674 1031 c-124 -56 -136 -230 -22 -314 18 -14 48 -22 87 -25 99 -7
168 28 202 102 39 86 10 191 -66 233 -51 29 -142 31 -201 4z m125 -32 c44 -48
54 -217 15 -260 -23 -26 -62 -21 -86 11 -38 52 -45 195 -12 248 18 28 57 29
83 1z"/>
</g>
</svg>
